# xmcd CD database file
#
# Track frame offsets:
#	150
#	30159
#	47331
#	62154
#	79621
#	92487
#	114602
#	133155
#	156745
#	172229
#	192116
#	210954
#	231422
#
# Disc length: 3363 seconds
#
# Revision: 0
# Processed by: cddbd v1.5.2PL0 Copyright (c) Steve Scherf et al.
# Submitted via: Feurio! 1.67 - http://www.feurio.com
#
DISCID=aa0d210d
DTITLE=Big Pete - Choice Cuts
DYEAR=2011
DGENRE=Blues
TTITLE0=Driftin'
TTITLE1=Can't You See What You're Doin' To Me
TTITLE2=Act Like You Love Me
TTITLE3=Just To Be With You
TTITLE4=Don't Start Crying Now
TTITLE5=I Got My Eyes On You
TTITLE6=Hey Lawdy Mama
TTITLE7=I Was Fooled
TTITLE8=Rockin' Daddy
TTITLE9=Left Me With A Broken Heart
TTITLE10=Just Your Fool
TTITLE11=Chromatic Crumbs
TTITLE12=I'm A Business Man
EXTD=Special Guests: Kim Wilson, Paul Oscher, Johnny Dyer, Al Blake, \r\nAlex 
EXTD=Schultz, Kid Ramos, Rusty Zinn, Kirk Fletcher, Shawn Pittman, \r\nRob 
EXTD=Rio, John Marx, Mojo Mark, Willie J. Campbell, Jimi Bott\r\n
EXTT0=
EXTT1=
EXTT2=
EXTT3=
EXTT4=
EXTT5=
EXTT6=
EXTT7=
EXTT8=
EXTT9=
EXTT10=
EXTT11=
EXTT12=
PLAYORDER=
